# xmcd
#
# Track frame offsets:
# 150
# 26776
# 43682
# 58103
# 69958
# 85865
# 104822
# 123699
# 142143
# 159993
# 175980
# 188781
# 201069
# 219540
# 240874
# 256348
# 271714
# 286729
#
# Disc length: 4039 seconds
#
#
# Revision: 0
# Processed by: cddbd v1.5.2PL0 Copyright (c) Steve Scherf et al.
# Submitted via: FreeRIP 2.943 
#
DISCID=080fc512
DTITLE=Cesar Menote e Fabiano - Acústico - 2006
DYEAR=2006
DGENRE=sertaneja
TTITLE0=Purpure
TTITLE1=Fica comigo
TTITLE2=Vou encher a cara
TTITLE3=Amigo
TTITLE4=Vou me entregar
TTITLE5=Ultimo adeus
TTITLE6=25 de Dezembro
TTITLE7=Luz da minha vida
TTITLE8=Poente da vida
TTITLE9=Heroi sem medalha
TTITLE10=Caminhos de minha infancia
TTITLE11=Mete o pe na bunda dela
TTITLE12=Mae
TTITLE13=Como eu chorei
TTITLE14=O som da viola
TTITLE15=Boi soberano
TTITLE16=Como eu chorei
TTITLE17=Eu bebo por ela
EXTD=by Trademark Informática - Koró
EXTT0=
EXTT1=
EXTT2=
EXTT3=
EXTT4=
EXTT5=
EXTT6=
EXTT7=
EXTT8=
EXTT9=
EXTT10=
EXTT11=
EXTT12=
EXTT13=
EXTT14=
EXTT15=
EXTT16=
EXTT17=
PLAYORDER=
